<?xml version="1.0" encoding="iso-8859-1"?>
<!-- Generator: Adobe Illustrator 19.0.0, SVG Export Plug-In . SVG Version: 6.00 Build 0)  -->
<svg version="1.1" id="Layer_1" xmlns="http://www.w3.org/2000/svg" xmlns:xlink="http://www.w3.org/1999/xlink" x="0px" y="0px"
	 viewBox="0 0 512 512" style="enable-background:new 0 0 512 512;" xml:space="preserve">
<g>
	<g>
		<path d="M343.9,223.538c7.956,4.725,18.229,2.099,22.949-5.849l33.21-55.928c5.156-8.682,1.503-19.929-7.766-23.927
			c-16.949-7.253-39.806-16.56-52.206-21.621c-6.007-2.452-12.34-3.677-18.827-3.679l-87.686-0.013l-48.282-27.93V29.823
			l8.994-0.005c3.38,4.447,8.711,7.329,14.728,7.326c10.216-0.006,18.493-8.292,18.489-18.507
			c-0.006-10.216-8.292-18.493-18.507-18.488c-6.016,0.003-11.344,2.892-14.72,7.342l-11.774,0.006
			C179.501,2.98,174.374,0,168.546,0c-5.833,0-10.965,2.986-13.963,7.51l-11.777,0.006c-3.38-4.447-8.711-7.329-14.728-7.326
			c-10.216,0.006-18.493,8.292-18.488,18.507c0.006,10.216,8.292,18.493,18.507,18.488c6.016-0.003,11.345-2.892,14.721-7.342
			l8.983-0.004v64.411c0,5.977,3.186,11.502,8.361,14.496l71.987,41.643v138.994h0.243l-0.466,156.681
			c-0.011,3.642,0.87,7.072,2.407,10.114h-21.957c-5.628,0-10.19,4.562-10.19,10.19v35.443c0,5.628,4.562,10.19,10.19,10.19h16.436
			c5.628,0,10.19-4.562,10.19-10.19v-17.72h113.121v17.721c0,5.628,4.562,10.19,10.19,10.19h16.436c5.628,0,10.19-4.562,10.19-10.19
			v-35.443c0-5.628-4.562-10.19-10.19-10.19H274.176c1.518-3.004,2.398-6.386,2.409-9.981l0.466-156.815h27.947l25.921,13.333
			l-21.595,64.388c-3.922,11.691,2.378,24.348,14.07,28.269c11.688,3.92,24.347-2.375,28.269-14.07l27.694-82.571
			c3.508-10.457-1.147-21.91-10.956-26.956l-37.21-19.139V147.948l30.348,13.092l-23.483,39.547
			C333.329,208.541,335.948,218.817,343.9,223.538z"/>
	</g>
</g>
<g>
	<g>
		<circle cx="281.671" cy="59.092" r="38.752"/>
	</g>
</g>
<g>
</g>
<g>
</g>
<g>
</g>
<g>
</g>
<g>
</g>
<g>
</g>
<g>
</g>
<g>
</g>
<g>
</g>
<g>
</g>
<g>
</g>
<g>
</g>
<g>
</g>
<g>
</g>
<g>
</g>
</svg>
