<?xml version="1.0" encoding="iso-8859-1"?>
<!-- Generator: Adobe Illustrator 18.0.0, SVG Export Plug-In . SVG Version: 6.00 Build 0)  -->
<!DOCTYPE svg PUBLIC "-//W3C//DTD SVG 1.1//EN" "http://www.w3.org/Graphics/SVG/1.1/DTD/svg11.dtd">
<svg version="1.1" id="Capa_1" xmlns="http://www.w3.org/2000/svg" xmlns:xlink="http://www.w3.org/1999/xlink" x="0px" y="0px"
	 viewBox="0 0 475.755 475.755" style="enable-background:new 0 0 475.755 475.755;" xml:space="preserve">
<g>
	<path d="M261.901,139.195h74.264l41.152,13.916l3.386,0.545c2.823,0,5.555-1.146,7.486-3.081c2.854-2.824,3.869-7.115,2.592-10.944
		l-15.603-46.132V35.568C375.177,15.95,359.237,0,339.597,0H226.896c-19.643,0-35.584,15.95-35.584,35.568v11.256h16.273V35.568
		c0-10.64,8.67-19.304,19.311-19.304h112.701c10.64,0,19.31,8.664,19.31,19.304v59.266l12.809,39.204l-31.603-10.679l-78.212-0.296
		V139.195z"/>
	<path d="M298.021,69.601c0-8.159-6.617-14.781-14.779-14.781c-8.156,0-14.787,6.622-14.787,14.781
		c0,8.158,6.631,14.782,14.787,14.782C291.403,84.383,298.021,77.759,298.021,69.601z"/>
	<path d="M343.558,69.601c0-8.159-6.617-14.781-14.793-14.781c-8.156,0-14.773,6.622-14.773,14.781
		c0,8.158,6.617,14.782,14.773,14.782C336.941,84.383,343.558,77.759,343.558,69.601z"/>
	<path d="M221.747,63.088h-98.176c-13.193,0-23.895,10.694-23.895,23.892v51.623L85.728,179.88c-0.253,0.788-0.062,1.646,0.531,2.23
		c0.398,0.414,0.963,0.633,1.525,0.633c0.238,0,0.469-0.032,0.705-0.11l36.907-12.481h96.351c13.195,0,23.881-10.702,23.881-23.899
		V86.979C245.628,73.782,234.943,63.088,221.747,63.088z M133.011,129.492c-7.115,0-12.885-5.764-12.885-12.872
		c0-7.115,5.77-12.878,12.885-12.878c7.104,0,12.888,5.764,12.888,12.878C145.899,123.728,140.114,129.492,133.011,129.492z
		 M172.673,129.492c-7.117,0-12.887-5.764-12.887-12.872c0-7.115,5.77-12.878,12.887-12.878c7.092,0,12.861,5.764,12.861,12.878
		C185.534,123.728,179.765,129.492,172.673,129.492z M212.308,129.492c-7.101,0-12.854-5.764-12.854-12.872
		c0-7.115,5.754-12.878,12.854-12.878c7.117,0,12.887,5.764,12.887,12.878C225.194,123.728,219.425,129.492,212.308,129.492z"/>
	<path d="M462.287,389.145l-4.09-10.679l-15.283-40.118c-3.573-9.378-12.068-16.036-22.029-17.249
		c-0.003-0.001-0.003-0.001-0.005-0.001c-3.979,22.436-23.493,39.671-47.07,39.671c-23.588,0-43.104-17.221-47.109-39.671
		c-9.88,1.264-18.256,7.847-21.827,17.145l-15.448,40.222l-4.09,10.679c-2.435,6.288-0.098,13.381,5.55,17.063
		c23.923,15.54,52.353,24.664,82.925,24.664c30.572,0,59.005-9.123,82.913-24.664C462.369,402.539,464.679,395.418,462.287,389.145z
		"/>
	<path d="M322.499,242.55c0,26.13,11.003,48.654,26.997,60.344v17.953h-5.813c3.643,13.522,15.452,23.704,30.126,23.704
		c14.662,0,26.484-10.182,30.114-23.704h-5.801v-17.953c15.982-11.69,26.985-34.214,26.985-60.344
		c0-38.018-23.02-68.958-51.299-68.958C345.52,173.592,322.499,204.533,322.499,242.55z M408.917,242.55
		c0,28.6-16.105,52.743-35.107,52.743c-19.013,0-35.092-24.143-35.092-52.743c0-28.598,16.079-52.758,35.092-52.758
		C392.812,189.792,408.917,213.952,408.917,242.55z"/>
	<path d="M35.325,338.542h34.064c2.487,2.722,5.146,5.104,7.955,7.148v16.755h-7.497l15.342,37.525
		c5.16,12.564,25.662,12.578,30.822-0.013l15.315-37.512h-7.469v-16.77c2.851-2.045,5.466-4.413,7.928-7.134h34.132
		c2.922,0,5.635-1.653,6.982-4.275c1.364-2.621,1.1-5.782-0.611-8.164c-7.845-10.943-13.9-25.349-15.634-37.471
		c-0.931-6.514-12.196-71.865-56.068-71.865c-39.745,0-56.067,53.516-56.067,72.105c0,12.211-7.762,26.356-15.564,37.231
		c-1.725,2.382-1.975,5.543-0.627,8.164C29.677,336.889,32.39,338.542,35.325,338.542z M100.754,267.479
		c17.72,0,31.879,9.686,32.978,21.83c-0.654,26.357-15.481,48.328-33.146,48.328c-17.429,0-32.087-21.518-33.049-47.511
		C68.01,277.592,82.587,267.479,100.754,267.479z"/>
	<path d="M183.623,423.523l-19.174-49.449c-2.548-6.568-8.875-10.888-15.919-10.869l-17.512,42.872
		c-5.104,12.438-17.01,20.446-30.433,20.446c-13.366,0-25.329-8.008-30.406-20.434l-17.482-42.897
		c-8.181,2.221-14.821,8.191-17.899,16.087l-17.25,44.244l-4.117,10.702c-2.254,5.923-0.166,12.606,5.078,16.173
		c23.408,15.964,51.671,25.357,82.077,25.357c30.433,0,58.669-9.393,82.106-25.357c5.218-3.554,7.358-10.264,5.05-16.173
		L183.623,423.523z"/>
</g>
<g>
</g>
<g>
</g>
<g>
</g>
<g>
</g>
<g>
</g>
<g>
</g>
<g>
</g>
<g>
</g>
<g>
</g>
<g>
</g>
<g>
</g>
<g>
</g>
<g>
</g>
<g>
</g>
<g>
</g>
</svg>
