<?xml version="1.0" encoding="iso-8859-1"?>
<!-- Generator: Adobe Illustrator 19.0.0, SVG Export Plug-In . SVG Version: 6.00 Build 0)  -->
<svg version="1.1" id="Layer_1" xmlns="http://www.w3.org/2000/svg" xmlns:xlink="http://www.w3.org/1999/xlink" x="0px" y="0px"
	 viewBox="0 0 228 228" style="enable-background:new 0 0 228 228;" xml:space="preserve">
<g>
	<g>
		<g>
			<path d="M112,62c0-30.879-25.121-56-56-56C25.121,6,0,31.121,0,62c0,30.879,25.121,56,56,56S112,92.879,112,62z M79.416,103.861
				c6.884-9.892,11.17-24.16,11.17-40.33c0-0.518-0.039-1.017-0.048-1.531H104C104,79.965,94.066,95.633,79.416,103.861z
				 M103.278,54H90.044C88.415,38.907,83,26.11,75.302,18.085C89.827,24.494,100.558,37.892,103.278,54z M60,17.67
				C70.792,20.666,79.674,35.452,81.989,54H60V17.67z M60,62h22.54c0.01,0.512,0.046,1.015,0.046,1.531
				c0,22.812-9.996,42.362-22.586,45.858V62z M36.695,18.086C28.997,26.112,23.582,38.908,21.952,54H8.722
				C11.442,37.893,22.172,24.496,36.695,18.086z M8,62h13.458c-0.009,0.514-0.048,1.014-0.048,1.531
				c0,16.168,4.286,30.436,11.17,40.328C17.933,95.631,8,79.964,8,62z M52,109.39c-12.592-3.495-22.59-23.046-22.59-45.858
				c0-0.517,0.036-1.02,0.046-1.532H52V109.39z M52,54H30.007C32.322,35.451,41.205,20.665,52,17.669V54z"/>
			<path d="M227.715,216.516L220,197.228V150c0-2.211-1.789-4-4-4h-88c-2.211,0-4,1.789-4,4v47.228l-7.715,19.287
				c-0.492,1.23-0.34,2.629,0.402,3.726C117.434,221.34,118.672,222,120,222h104c1.328,0,2.566-0.66,3.312-1.758
				C228.055,219.144,228.207,217.746,227.715,216.516z M132,154h80v40h-80V154z M125.906,214l4.801-12h82.586l4.801,12H125.906z"/>
			<path d="M102.828,171.859c-1.562-1.562-4.094-1.562-5.656,0c-1.562,1.562-1.562,4.094,0,5.656l4.485,4.484H60v-33.656
				l4.484,4.484c0.781,0.781,1.805,1.172,2.828,1.172s2.047-0.391,2.828-1.172c1.562-1.562,1.562-4.094,0-5.656l-10.385-10.385
				C59.236,135.18,57.78,134,56,134c-1.78,0-3.236,1.18-3.755,2.786l-10.386,10.386c-1.562,1.562-1.562,4.094,0,5.656
				s4.094,1.562,5.656,0L52,148.344V186c0,2.211,1.789,4,4,4h45.656l-4.484,4.484c-1.562,1.562-1.562,4.094,0,5.656
				c0.781,0.781,1.805,1.172,2.828,1.172s2.047-0.391,2.828-1.172l11.312-11.312c1.562-1.562,1.562-4.094,0-5.656L102.828,171.859z"
				/>
		</g>
	</g>
</g>
<g>
</g>
<g>
</g>
<g>
</g>
<g>
</g>
<g>
</g>
<g>
</g>
<g>
</g>
<g>
</g>
<g>
</g>
<g>
</g>
<g>
</g>
<g>
</g>
<g>
</g>
<g>
</g>
<g>
</g>
</svg>
